<?xml version="1.0" encoding="UTF-8" standalone="no"?>
<!-- Created with Inkscape (http://www.inkscape.org/) -->

<svg
   id="svg3058"
   version="1.1"
   inkscape:version="1.1.1 (3bf5ae0d25, 2021-09-20)"
   width="1024"
   height="1024"
   xml:space="preserve"
   sodipodi:docname="icon.svg"
   inkscape:export-filename="/home/andor/Documents/Composer/vendor/pmkr/pmkr-1.x/icon-square.png"
   inkscape:export-xdpi="96"
   inkscape:export-ydpi="96"
   xmlns:inkscape="http://www.inkscape.org/namespaces/inkscape"
   xmlns:sodipodi="http://sodipodi.sourceforge.net/DTD/sodipodi-0.dtd"
   xmlns:xlink="http://www.w3.org/1999/xlink"
   xmlns="http://www.w3.org/2000/svg"
   xmlns:svg="http://www.w3.org/2000/svg"
   xmlns:rdf="http://www.w3.org/1999/02/22-rdf-syntax-ns#"><metadata
     id="metadata3064"><rdf:RDF /></metadata><defs
     id="defs3062"><clipPath
       clipPathUnits="userSpaceOnUse"
       id="clipPath3074"><path
         d="m 317.33333,283.30816 c 174.9263,0 316.73878,74.59861 316.73878,166.61728 0,92.01856 -141.81248,166.61717 -316.73878,166.61717 -174.92629,0 -316.73761395,-74.59861 -316.73761395,-166.61717 0,-92.01867 141.81132395,-166.61728 316.73761395,-166.61728"
         id="path3076"
         inkscape:connector-curvature="0"
         style="stroke-width:1.06667" /></clipPath><clipPath
       clipPathUnits="userSpaceOnUse"
       id="clipPath3080"><path
         d="m 0,282.66667 h 634.66667 v 332.8 H 0 Z"
         id="path3082"
         inkscape:connector-curvature="0"
         style="stroke-width:1.06667" /></clipPath><radialGradient
       fx="0"
       fy="0"
       cx="0"
       cy="0"
       r="1"
       gradientUnits="userSpaceOnUse"
       gradientTransform="matrix(344.82784,-232.55861,-232.55861,-344.82784,190.76661,557.96437)"
       id="radialGradient3090"><stop
         style="stop-opacity:1;stop-color:#4a659b"
         offset="0"
         id="stop3092" /><stop
         style="stop-opacity:1;stop-color:#231f20"
         offset="1"
         id="stop3094" /></radialGradient><radialGradient
       fx="0"
       fy="0"
       cx="0"
       cy="0"
       r="0.5"
       gradientUnits="userSpaceOnUse"
       gradientTransform="matrix(344.82784,-232.55861,-232.55861,-344.82784,190.76661,557.96437)"
       id="radialGradient3102"
       xlink:href="#radialGradient3090"><stop
         style="stop-opacity:1;stop-color:#ffffff"
         offset="0"
         id="stop3104" /><stop
         style="stop-opacity:1;stop-color:#376a3d"
         offset="1"
         id="stop3106" /></radialGradient><clipPath
       clipPathUnits="userSpaceOnUse"
       id="clipPath3114"><path
         d="m 0,282.66667 h 634.66667 v 332.8 H 0 Z"
         id="path3116"
         inkscape:connector-curvature="0"
         style="stroke-width:1.06667" /></clipPath><radialGradient
       inkscape:collect="always"
       xlink:href="#radialGradient3090"
       id="radialGradient1041"
       gradientUnits="userSpaceOnUse"
       gradientTransform="matrix(344.82784,-232.55861,-232.55861,-344.82784,190.76661,557.96437)"
       cx="0"
       cy="0"
       fx="0"
       fy="0"
       r="1" /></defs><sodipodi:namedview
     pagecolor="#e6e6e6"
     bordercolor="#666666"
     borderopacity="1"
     objecttolerance="2"
     gridtolerance="2"
     guidetolerance="2"
     inkscape:pageopacity="0"
     inkscape:pageshadow="2"
     inkscape:window-width="1828"
     inkscape:window-height="1045"
     id="namedview3060"
     showgrid="true"
     fit-margin-top="0"
     fit-margin-left="0"
     fit-margin-right="0"
     fit-margin-bottom="0"
     inkscape:zoom="0.70710678"
     inkscape:cx="399.51533"
     inkscape:cy="521.84481"
     inkscape:window-x="80"
     inkscape:window-y="600"
     inkscape:window-maximized="1"
     inkscape:current-layer="layer6"
     inkscape:pagecheckerboard="true"
     showguides="false"
     inkscape:lockguides="false"
     inkscape:guide-bbox="true"><inkscape:grid
       type="xygrid"
       id="grid9786"
       visible="false"
       enabled="false" /><inkscape:grid
       type="axonomgrid"
       id="grid9788"
       empspacing="12"
       gridanglex="0"
       gridanglez="79"
       originy="6"
       originx="-0.5"
       spacingy="4"
       empcolor="#ffa178"
       empopacity="0.25098039"
       color="#bdffbe"
       opacity="0.1254902"
       units="px"
       enabled="false"
       visible="true" /></sodipodi:namedview><g
     inkscape:groupmode="layer"
     id="layer1"
     inkscape:label="background"
     style="display:inline"><g
       inkscape:groupmode="layer"
       id="layer6"
       inkscape:label="background - base"
       style="display:inline"><g
         transform="matrix(1.6164782,0,0,-1.6164782,-0.96335253,1238.425)"
         id="g3070"
         style="display:inline;stroke-width:1.00032;stroke-miterlimit:4;stroke-dasharray:none"
         inkscape:export-filename="/home/andor/Documents/Composer/vendor/pmkr/pmkr-1.x/icon.png"
         inkscape:export-xdpi="114.42896"
         inkscape:export-ydpi="114.42896"><g
           clip-path="url(#clipPath3074)"
           id="g3072"
           style="stroke-width:1.00032;stroke-miterlimit:4;stroke-dasharray:none"><g
             clip-path="url(#clipPath3080)"
             id="g3078"
             style="stroke-width:1.00032;stroke-miterlimit:4;stroke-dasharray:none"><path
               inkscape:connector-curvature="0"
               id="path3084"
               style="fill:#231f20;fill-opacity:1;fill-rule:nonzero;stroke:none;stroke-width:1.00032;stroke-miterlimit:4;stroke-dasharray:none"
               d="m 317.33333,283.30816 c 174.9263,0 316.73878,74.59861 316.73878,166.61728 0,92.01856 -141.81248,166.61717 -316.73878,166.61717 -174.92629,0 -316.73761395,-74.59861 -316.73761395,-166.61717 0,-92.01867 141.81132395,-166.61728 316.73761395,-166.61728" /><path
               inkscape:connector-curvature="0"
               id="path3086"
               style="fill:#1f1f23;fill-opacity:1;fill-rule:nonzero;stroke:none;stroke-width:1.00032;stroke-miterlimit:4;stroke-dasharray:none"
               d="M 535.57163,325.46656 C 407.19936,135.1216 148.53035,84.8248 -41.814677,213.19701 -232.15968,341.56928 -282.45643,600.23829 -154.08427,790.58325 -25.712021,980.92832 232.95701,1031.2251 423.30208,902.8528 613.64704,774.48064 663.94379,515.81163 535.57163,325.46656" /><g
               id="g3088"
               style="stroke-width:1.00032;stroke-miterlimit:4;stroke-dasharray:none"><path
                 inkscape:connector-curvature="0"
                 id="path3096"
                 style="fill:url(#radialGradient1041);stroke:none;stroke-width:1.00032;stroke-miterlimit:4;stroke-dasharray:none"
                 d="m 0,282.66667 h 634.66667 v 332.8 H 0 Z" /></g><path
               inkscape:connector-curvature="0"
               id="path3098"
               style="fill:#9b4a80;fill-opacity:1;fill-rule:nonzero;stroke:none;stroke-width:1.00032;stroke-miterlimit:4;stroke-dasharray:none"
               d="M 363.15765,441.67701 C 298.97152,346.50453 169.63701,321.35616 74.464501,385.54219 -20.708,449.72832 -45.856384,579.06283 18.329728,674.23541 82.515829,769.40789 211.85035,794.55627 307.02283,730.37013 402.19541,666.184 427.34379,536.84949 363.15765,441.67701" /><g
               id="g3100"
               style="stroke-width:1.00032;stroke-miterlimit:4;stroke-dasharray:none"><path
                 inkscape:connector-curvature="0"
                 id="path3108"
                 style="fill:url(#radialGradient3102);fill-opacity:1;stroke:none;stroke-width:1.00032;stroke-miterlimit:4;stroke-dasharray:none"
                 d="m 0,282.66667 h 634.66667 v 332.8 H 0 Z" /></g></g></g></g></g><g
       inkscape:groupmode="layer"
       id="layer7"
       inkscape:label="background - top"
       style="display:inline"><path
         inkscape:connector-curvature="0"
         id="path3118"
         style="display:inline;fill:#3ba726;fill-opacity:1;fill-rule:nonzero;stroke:none;stroke-width:1.72424"
         d="m 512.00009,761.33498 c 271.72009,0 491.99941,-111.63338 491.99941,-249.33508 0,-137.70168 -220.27932,-249.33489 -491.99941,-249.33489 -271.7201,0 -491.999513,111.63321 -491.999513,249.33489 0,137.7017 220.279413,249.33508 491.999513,249.33508" /></g></g><g
     id="g3066"
     inkscape:groupmode="layer"
     inkscape:label="letters"
     transform="matrix(1.25,0,0,-1.25,-0.74464507,695.46853)"
     style="display:inline"><g
       inkscape:groupmode="layer"
       id="layer2"
       inkscape:label="letters - r"
       transform="matrix(0.8,0,0,-0.8,0.59571606,556.37482)"
       style="display:inline"><path
         id="path3128"
         style="display:inline;fill:#08090d;fill-opacity:1;fill-rule:nonzero;stroke:#ffffff;stroke-width:9;stroke-linejoin:round;stroke-miterlimit:4;stroke-dasharray:none;stroke-dashoffset:0.8;stroke-opacity:1;paint-order:stroke fill markers"
         d="m 773.89455,433.85421 c -10.0792,52.00002 -20.28837,104.00005 -30.36757,156.00008 l 41.98394,-8e-5 23.48399,-120 c 0,0 34.14998,0 52.9048,-0.031 8.84003,-0.0146 19.13137,6.03105 21.91577,14.64934 2.3858,5.6022 4.1261,17.49415 4.1261,17.49415 h 40.8353 c 0.4631,-19.53246 -3.7763,-39.84342 -18.0023,-54.15718 -16.9785,-12.84988 -39.3613,-14.48221 -59.9049,-13.95529 z"
         sodipodi:nodetypes="ccccscccccc" /></g><g
       inkscape:groupmode="layer"
       id="layer5"
       inkscape:label="letters - k sharp"
       style="display:inline"><path
         d="M 361.23119,58.288698"
         style="display:inline;fill:#000000;fill-opacity:1;fill-rule:nonzero;stroke:#ffffff;stroke-width:5.76;stroke-linejoin:round;stroke-miterlimit:4;stroke-dasharray:none;stroke-opacity:1;paint-order:stroke fill markers"
         id="path78697" /><path
         id="path3124-2"
         style="display:inline;fill:#08090d;fill-opacity:1;fill-rule:nonzero;stroke:#ffffff;stroke-width:7.2;stroke-linecap:round;stroke-linejoin:round;stroke-miterlimit:4;stroke-dasharray:none;stroke-opacity:1;paint-order:stroke fill markers"
         d="m 465.94865,84.491459 33.44215,-0.0082 5.7289,28.865691 22.26554,19.39307 26.92668,-48.250561 37.48582,0.06537 -39.20616,70.250331 62.20293,54.45125 -49.78189,0.033 -49.61643,-43.43327 16.67943,85.80023 -33.56195,0.033 z"
         sodipodi:nodetypes="ccccccccccccc" /></g><g
       inkscape:groupmode="layer"
       id="g83211"
       inkscape:label="letters - k hole"
       style="display:none"><path
         id="path83207"
         style="display:inline;fill:#08090d;fill-opacity:1;fill-rule:nonzero;stroke:#ffffff;stroke-width:2.4;stroke-linecap:round;stroke-linejoin:round;stroke-miterlimit:4;stroke-dasharray:none;stroke-opacity:1;paint-order:stroke fill markers"
         d="m 165.78507,456.97481 c -3.6102,-18.6 -7.22039,-37.19999 -10.83059,-55.79999 h 11.35905 l 2.31369,9.5875 h 10.20888 c 2.07425,-3.19836 4.14851,-6.39671 6.22276,-9.59507 4.06632,0.003 8.13265,0.005 12.19897,0.008 -2.3814,3.89521 -5.09399,7.61943 -6.92243,11.82516 4.11585,1.69484 9.16217,3.68206 10.4357,8.43268 1.58361,4.09269 0.69249,8.6703 -0.77357,12.66455 -1.90471,5.31471 -7.52241,8.30707 -12.93143,8.5929 -4.21901,0.17131 -8.4473,0.0483 -12.67024,0.0842 0.92129,4.73333 1.84257,9.46667 2.76386,14.2 -3.79154,4e-5 -7.58314,-1.4e-4 -11.37465,2e-5 z m 6.74502,-23.79999 c 4.74657,-0.0485 9.50109,0.0997 14.24239,-0.0791 2.62379,0.0738 5.29294,-1.53764 5.84651,-4.21848 1.07761,-3.81105 -2.14382,-7.63359 -5.89514,-8.08445 -5.52119,-0.82788 -11.12732,-0.25399 -16.68666,-0.41799 0.83097,4.26668 1.66195,8.53336 2.4929,12.80004 z"
         sodipodi:nodetypes="cccccccccccccccccccccc" /><path
         d="M 113.87422,390.34615"
         style="display:inline;fill:#000000;fill-opacity:1;fill-rule:nonzero;stroke:#ffffff;stroke-width:1.92;stroke-linejoin:round;stroke-miterlimit:4;stroke-dasharray:none;stroke-opacity:1;paint-order:stroke fill markers"
         id="path83209" /></g><g
       inkscape:groupmode="layer"
       id="layer4"
       inkscape:label="letters - m"
       style="display:inline"><path
         id="path4423"
         style="display:inline;fill:#000000;fill-opacity:1;fill-rule:nonzero;stroke:#ffffff;stroke-width:7.2;stroke-linejoin:round;stroke-miterlimit:4;stroke-dasharray:none;stroke-opacity:1;paint-order:stroke fill markers"
         d="m 267.89873,84.491483 h 34.01379 l 19.11358,95.999967 21.73745,-0.1284 c 9.32746,-0.0551 15.41911,-1.62711 18.2848,-4.7151 2.86688,-3.08793 3.44482,-9.7955 1.79437,-18.28634 l -14.65781,-72.882151 34.06511,0.012 18.69762,95.999991 22.33991,-0.007 c 9.32767,-0.003 15.3895,-0.85878 18.25522,-3.94683 2.86686,-3.0879 3.31291,-8.77166 1.66245,-17.26247 l -14.5552,-74.783491 h 33.6 l 15.58135,79.999991 c 3.11661,16.05991 4.93545,27.37025 -2.8227,34.49991 -7.75807,7.12491 -23.41241,10.29927 -43.84771,10.29927 l -138.50618,8.5e-4 z"
         sodipodi:nodetypes="cccscccccsccccccccc" /></g><g
       inkscape:groupmode="layer"
       id="layer3"
       inkscape:label="letters - p"
       style="display:inline"><path
         id="path3124"
         style="display:inline;fill:#08090d;fill-opacity:1;fill-rule:nonzero;stroke:#ffffff;stroke-width:7.2;stroke-linecap:round;stroke-linejoin:round;stroke-miterlimit:4;stroke-dasharray:none;stroke-opacity:1;paint-order:stroke fill markers"
         d="m 207.12771,180.4524 c 13.96174,-0.0663 23.56628,-0.77646 28.21797,-5.93154 4.64817,-5.15397 5.75577,-13.52017 3.32403,-26.05718 -2.54163,-13.05679 -7.43293,-21.0263 -14.68522,-26.60966 -7.2523,-5.58333 -18.76472,-8.43953 -33.5806,-8.48577 l -24.61025,-0.0768 13.08833,67.2 z m -56.23645,28.83905 -32.61035,-167.433174 33.59991,-10e-7 8.30184,42.624479 34.44449,0.0086 c 13.88897,0.0035 25.40285,0.996031 34.37283,3.917343 8.96989,2.914292 17.27848,8.714918 24.61529,15.583033 6.15858,5.65854 11.14006,11.90281 14.95603,18.7303 3.81135,6.8218 6.4306,14.81431 8.03122,23.05157 3.88776,19.99774 0.95373,35.57303 -8.794,46.73043 -9.74773,11.15857 -24.99338,16.78741 -46.25154,16.78741 h -70.66572"
         sodipodi:nodetypes="cccsscccccccscccccsc" /></g><g
       id="g3068"
       transform="matrix(1.0666667,0,0,1.0666667,-0.03971738,46.055906)" /></g></svg>
